<svg enable-background="new 0 0 40 40" viewBox="0 0 40 40" xmlns="http://www.w3.org/2000/svg"><path d="m28.247 21.995h-1.251l.001-1.25-.007-.128c-.064-.63-.596-1.122-1.243-1.122h-3l-.128.006c-.63.064-1.122.596-1.122 1.244l-.001 1.25h-1.249c-.966 0-1.75.783-1.75 1.75v4.5c0 .966.784 1.75 1.75 1.75h8c.966 0 1.75-.784 1.75-1.75v-4.5c0-.966-.784-1.75-1.75-1.75zm-5.25-1h2.5l-.001 1h-2.5zm5.5 7.25c0 .138-.112.25-.25.25h-8c-.138 0-.25-.112-.25-.25v-4.5c0-.138.112-.25.25-.25h8c.138 0 .25.112.25.25zm-10.5-8.245c2.761 0 5-2.239 5-5s-2.239-5-5-5c-2.762 0-5 2.239-5 5s2.238 5 5 5zm0-8.5c1.933 0 3.5 1.567 3.5 3.5s-1.567 3.5-3.5 3.5-3.5-1.567-3.5-3.5 1.566-3.5 3.5-3.5zm2.003-11.5c-11.046 0-20 8.954-20 20s8.954 20 20 20 20-8.954 20-20-8.954-20-20-20zm13.082 33.082c-3.351 3.349-7.971 5.418-13.082 5.418s-9.731-2.069-13.081-5.418c-3.349-3.351-5.419-7.971-5.419-13.082s2.07-9.731 5.419-13.081c3.35-3.349 7.97-5.419 13.081-5.419s9.731 2.07 13.082 5.419c3.349 3.35 5.418 7.97 5.418 13.081s-2.069 9.731-5.418 13.082zm-20.833-9.587h5.259c.051-.568.275-1.085.618-1.5h-5.876l-.155.005c-1.17.08-2.095 1.054-2.095 2.244v.578c0 .893.318 1.756.898 2.435 1.566 1.834 3.952 2.739 7.098 2.739l.129-.001c-.344-.417-.568-.937-.618-1.507-2.485-.085-4.291-.826-5.469-2.205-.348-.407-.539-.926-.539-1.461v-.578c.001-.413.336-.749.75-.749z" fill="#767676"/></svg>