<svg xmlns="http://www.w3.org/2000/svg" width="16" height="16" fill="none"><path fill="#767676" d="M7.61 1.18a2.14 2.14 0 0 1 3.43-.55l4.33 4.33a2.14 2.14 0 0 1-.55 3.43l-3.7 1.85a1.6 1.6 0 0 0-.77.83L8.8 14.91c-.28.71-1.2.9-1.74.36l-2.8-2.79L.77 16H0v-.76l3.52-3.52L.73 8.93a1.07 1.07 0 0 1 .36-1.74l3.84-1.54c.36-.15.66-.42.83-.77l1.85-3.7Zm2.67.2a1.07 1.07 0 0 0-1.71.28l-1.85 3.7c-.3.58-.79 1.04-1.4 1.28L1.5 8.18l6.33 6.33 1.54-3.83c.24-.61.7-1.1 1.28-1.4l3.7-1.85c.65-.33.8-1.2.28-1.71l-4.34-4.34Z"/></svg>